<?xml version="1.0" encoding="UTF-8"?>
<svg xmlns="http://www.w3.org/2000/svg" xmlns:xlink="http://www.w3.org/1999/xlink" width="50px" height="50px" viewBox="0 0 50 50" version="1.1">
<g id="surface1">
<path style=" stroke:none;fill-rule:evenodd;fill:rgb(34.117647%,34.509804%,34.901961%);fill-opacity:1;" d="M 10.421875 15.1875 L 10.5 15.253906 C 11 14.554688 11.5 13.855469 12 13.160156 C 12.179688 12.90625 12.363281 12.652344 12.542969 12.402344 C 12.722656 12.144531 12.761719 11.8125 12.652344 11.515625 C 12.515625 11.210938 12.246094 11.003906 11.933594 11.015625 C 11.675781 11.027344 11.476562 11.179688 11.320312 11.398438 L 10.664062 12.320312 C 10.214844 12.941406 9.765625 13.570312 9.320312 14.199219 C 9.554688 14.40625 9.789062 14.613281 10.019531 14.824219 C 10.15625 14.945312 10.289062 15.066406 10.421875 15.1875 "/>
<path style=" stroke:none;fill-rule:evenodd;fill:rgb(34.117647%,34.509804%,34.901961%);fill-opacity:1;" d="M 39.882812 16.921875 L 38.984375 15.386719 L 42.074219 11.328125 L 37.441406 13.453125 L 36.136719 12.246094 L 40.363281 6.691406 L 41.667969 7.902344 L 39.226562 11.105469 L 43.132812 9.316406 L 44.269531 10.738281 L 41.667969 14.15625 L 45.332031 12.472656 L 46.226562 14.007812 Z M 25 40.625 C 16.367188 40.625 9.375 33.628906 9.375 25 C 9.375 16.367188 16.367188 9.371094 25 9.371094 C 33.628906 9.371094 40.621094 16.367188 40.621094 25 C 40.621094 33.628906 33.628906 40.625 25 40.625 Z M 5.179688 13.136719 C 4.972656 12.960938 4.761719 12.792969 4.546875 12.625 L 4.644531 12.503906 C 5.132812 11.894531 5.613281 11.289062 6.101562 10.683594 C 6.671875 9.972656 7.234375 9.265625 7.800781 8.5625 C 7.910156 8.429688 8.015625 8.289062 8.128906 8.15625 C 8.316406 7.917969 8.570312 7.734375 8.859375 7.625 C 9.472656 7.402344 10.15625 7.546875 10.628906 8 C 10.859375 8.21875 11.015625 8.503906 11.09375 8.8125 C 11.164062 9.125 11.148438 9.449219 11.050781 9.75 C 11.097656 9.71875 11.132812 9.679688 11.179688 9.648438 C 11.726562 9.261719 12.449219 9.152344 13.0625 9.4375 C 13.683594 9.71875 14.085938 10.277344 14.179688 10.949219 C 14.203125 11.195312 14.191406 11.449219 14.117188 11.691406 C 13.976562 12.160156 13.644531 12.515625 13.34375 12.886719 C 12.761719 13.617188 12.179688 14.339844 11.601562 15.066406 C 11.117188 15.675781 10.628906 16.277344 10.144531 16.882812 C 10.109375 16.929688 10.074219 16.972656 10.039062 17.015625 C 10.03125 17.027344 9.988281 16.984375 9.980469 16.976562 C 9.800781 16.832031 9.621094 16.691406 9.441406 16.542969 L 7.324219 14.851562 C 6.609375 14.28125 5.898438 13.703125 5.179688 13.136719 Z M 20.960938 1.558594 L 23.304688 1.300781 L 25 6.246094 L 26.691406 1.300781 L 29.035156 1.558594 L 29.292969 8.59375 L 27.46875 8.332031 L 27.292969 3.644531 L 25.648438 8.332031 L 24.34375 8.332031 L 22.695312 3.644531 L 22.523438 8.332031 L 20.703125 8.59375 L 20.957031 1.558594 Z M 25 0 C 11.1875 0 0 11.191406 0 25 C 0 38.804688 11.191406 50 25 50 C 38.808594 50 50 38.804688 50 25 C 50 11.191406 38.808594 0 25 0 Z M 25 0 "/>
<path style=" stroke:none;fill-rule:evenodd;fill:rgb(34.117647%,34.509804%,34.901961%);fill-opacity:1;" d="M 10.148438 11.058594 C 10.210938 10.824219 10.140625 10.570312 9.964844 10.402344 C 9.726562 10.179688 9.378906 10.109375 9.074219 10.222656 C 8.851562 10.304688 8.71875 10.480469 8.574219 10.648438 L 6.902344 12.523438 C 6.859375 12.570312 6.816406 12.617188 6.78125 12.667969 L 7.121094 12.914062 C 7.417969 13.132812 7.71875 13.34375 8.015625 13.558594 L 9.773438 11.582031 C 9.917969 11.417969 10.082031 11.265625 10.148438 11.058594 M 10.167969 25.425781 L 25.425781 25.425781 L 25.425781 10.167969 C 17.097656 10.386719 10.386719 17.097656 10.167969 25.425781 M 25.425781 40.679688 C 33.75 40.460938 40.460938 33.75 40.679688 25.425781 L 25.425781 25.425781 Z M 25.425781 40.679688 "/>
</g>
</svg>
