<svg xmlns="http://www.w3.org/2000/svg" xmlns:xlink="http://www.w3.org/1999/xlink" width="57" height="22" viewBox="0 0 57 22">
    <defs>
        <path id="a" d="M40.859 2.492A9.876 9.876 0 0 0 34.955.449a9.851 9.851 0 0 0-6.194 2.061A9.89 9.89 0 0 0 22.847.465a9.917 9.917 0 0 0-6.167 2.033 9.943 9.943 0 0 0-5.882-2.03C5.318.397.789 4.795.713 10.25c-.074 5.455 4.335 9.963 9.816 10.036a9.866 9.866 0 0 0 6.167-2.04 9.898 9.898 0 0 0 5.889 2.031 9.885 9.885 0 0 0 6.197-2.063 9.845 9.845 0 0 0 5.903 2.048 9.898 9.898 0 0 0 6.195-2.056 9.952 9.952 0 0 0 5.905 2.044c5.481.069 10.009-4.315 10.087-9.775.072-5.459-4.339-9.969-9.82-10.048l-.13-.001c-2.274 0-4.38.767-6.063 2.066zm.057.401A9.608 9.608 0 0 1 46.579.787c.076.113.405.77.459.77 4.731.22 8.507 3.042 8.702 8.903.147 4.834-4.085 8.721-8.94 8.656a8.83 8.83 0 0 1-5.928-2.394c-1.708 1.536-3.778 2.444-6.17 2.409a8.74 8.74 0 0 1-5.912-2.384c-1.653 1.539-3.908 2.434-6.19 2.398a8.873 8.873 0 0 1-5.904-2.362c-.249.23-.544.473-.879.712a8.767 8.767 0 0 1-5.275 1.664 8.826 8.826 0 0 1-8.004-5.371 4.457 4.457 0 0 1-.905-.171 9.549 9.549 0 0 1-.567-3.364C1.135 5.144 5.255 1.01 10.321.827c.141.208.292.463.42.775h.042a8.826 8.826 0 0 1 6.046 2.521l-.071-1.239A9.6 9.6 0 0 1 22.381.823c.077.113.282.383.453.77 2.217.027 4.481 1.001 6.051 2.5l-.067-1.18A9.466 9.466 0 0 1 34.48.809c.14.206.285.459.417.766h.043c2.233.033 4.459 1.05 6.056 2.568l-.08-1.25z"/>
        <path id="c" d="M.424 8.349c-.048 3.999 2.731 7.384 6.462 8.227.126-.163.268-.339.407-.518.422.08.861.121 1.305.128 1.734.022 3.335-.531 4.712-1.559l1.149.02a8.95 8.95 0 0 1-1.849-2.781 4.19 4.19 0 0 1-.892-.16 9.37 9.37 0 0 1-.566-3.387 9.547 9.547 0 0 1 2.052-5.807c.486-.013.979-.022 1.26-.022A8.232 8.232 0 0 0 8.815.14L8.7.139C4.192.139.489 3.808.424 8.349zm8.181 7.44c-4.013-.056-7.24-3.383-7.193-7.426.057-4.036 3.378-7.282 7.391-7.233a7.217 7.217 0 0 1 4.026 1.289 9.943 9.943 0 0 0-2.032 5.9 9.9 9.9 0 0 0 2.032 6.163c-.875.583-2.352 1.307-4.142 1.307h-.082z"/>
        <path id="e" d="M.412 6.559c-.04 1.492.53 3.851 1.662 5.169.215.253.386.534.68.793l.03-1.073c1.083-1.296 1.641-2.965 1.662-4.658a7.88 7.88 0 0 0-.38-2.525c.157-.416.453-.64.453-.64-.272-.98-1.061-2.009-1.779-2.747A8.617 8.617 0 0 0 .412 6.559zm1.002.015a7.419 7.419 0 0 1 1.312-4.122 7.45 7.45 0 0 1 1.319 4.332A7.385 7.385 0 0 1 2.734 10.9a7.397 7.397 0 0 1-1.32-4.326z"/>
        <path id="g" d="M.739 6.397c-.032 2.231.877 4.276 2.37 5.781l.028-.976c.918-1.419 1.609-2.79 1.63-4.583a7.225 7.225 0 0 0-.386-2.458c.16-.405.466-.625.466-.625-.24-.813-1.098-2-1.783-2.658C1.643 2.322.766 4.256.739 6.397zm1.016.009A7.038 7.038 0 0 1 3.056 2.44a7.072 7.072 0 0 1 1.305 4.171 7.07 7.07 0 0 1-1.297 3.971 7.009 7.009 0 0 1-1.309-4.176z"/>
        <path id="i" d="M.135 2.422a8.721 8.721 0 0 1 2.441 6.171 8.903 8.903 0 0 1-2.404 5.935 8.367 8.367 0 0 0 3.889 2.048c.127-.169.271-.347.414-.525.43.08.874.121 1.324.129 1.904.028 3.508-.662 4.869-1.568l1.072-.03a9.02 9.02 0 0 1-1.824-2.723 4.094 4.094 0 0 1-.91-.167 9.486 9.486 0 0 1-.572-3.375 9.515 9.515 0 0 1 2.085-5.808l1.259.006C10.21 1.055 8.228.169 6.023.14L5.924.139A8.429 8.429 0 0 0 .135 2.422zm5.673 13.359a7.414 7.414 0 0 1-4.126-1.303 9.833 9.833 0 0 0 2.04-5.87 9.801 9.801 0 0 0-2.054-6.152 7.393 7.393 0 0 1 4.34-1.324 7.47 7.47 0 0 1 4.108 1.305A9.843 9.843 0 0 0 8.075 8.31a9.861 9.861 0 0 0 2.054 6.155c-.882.578-2.386 1.317-4.211 1.317l-.11-.001z"/>
        <path id="k" d="M.463 2.415A8.946 8.946 0 0 1 2.87 8.599c-.029 2.129-.88 4.411-2.379 5.939a8.327 8.327 0 0 0 3.811 2.038l.408-.523c.42.083.854.127 1.294.133 4.206.055 7.679-3.364 7.743-7.616a7.821 7.821 0 0 0-.38-2.489 1.49 1.49 0 0 1 .451-.629C13.165 3.102 9.872.14 6.222.14L6.109.139c-2.176 0-4.165.87-5.646 2.276zM6.01 15.789a7.13 7.13 0 0 1-4.028-1.305 9.957 9.957 0 0 0 2.005-5.87 10.01 10.01 0 0 0-2.018-6.155 7.142 7.142 0 0 1 4.238-1.327c3.989.054 7.198 3.395 7.147 7.431-.054 4.005-3.306 7.226-7.256 7.226H6.01z"/>
        <path id="m" d="M.724 6.537a8.387 8.387 0 0 0 2.407 5.984l.013-1.03c1.088-1.469 1.585-2.776 1.615-4.717a7.65 7.65 0 0 0-.391-2.521c.167-.415.465-.64.465-.64-.27-.96-1.073-2.001-1.799-2.735C1.631 2.366.753 4.345.724 6.537zm1.015.015A7.39 7.39 0 0 1 3.034 2.48a7.338 7.338 0 0 1 1.323 4.288 7.327 7.327 0 0 1-1.307 4.08 7.304 7.304 0 0 1-1.311-4.296z"/>
        <path id="o" d="M.149 2.407c1.593 1.675 2.503 3.778 2.476 6.185a8.77 8.77 0 0 1-2.476 5.956 8.596 8.596 0 0 0 3.907 2.028c.13-.173.268-.348.42-.529.432.079.877.124 1.329.127 1.584.027 3.645-.501 4.851-1.578l1.137-.007a8.879 8.879 0 0 1-1.839-2.731 4.428 4.428 0 0 1-.917-.161 9.433 9.433 0 0 1 1.528-9.188l1.208-.027C10.167 1.019 8.275.168 6.021.14l-.11-.001A8.42 8.42 0 0 0 .149 2.407zm5.663 13.372a7.427 7.427 0 0 1-4.107-1.28 9.778 9.778 0 0 0 2.072-5.892 9.846 9.846 0 0 0-2.086-6.178 7.47 7.47 0 0 1 4.317-1.296 7.505 7.505 0 0 1 4.147 1.308 9.862 9.862 0 0 0-2.054 5.873 9.82 9.82 0 0 0 2.061 6.141c-.883.581-2.404 1.325-4.24 1.325l-.11-.001z"/>
    </defs>
    <g fill="none" fill-rule="evenodd">
        <path fill="#575859" d="M46.8 19.403a8.828 8.828 0 0 1-5.927-2.395c-1.71 1.536-3.78 2.444-6.171 2.409a8.74 8.74 0 0 1-5.912-2.384c-1.654 1.539-3.907 2.434-6.19 2.398a8.873 8.873 0 0 1-5.904-2.362 9.11 9.11 0 0 1-.878.712 8.827 8.827 0 0 1-13.28-3.707 4.53 4.53 0 0 1-.905-.17 9.556 9.556 0 0 1-.566-3.364c.068-5.11 4.188-9.243 9.254-9.426.14.207.29.462.42.773h.042a8.828 8.828 0 0 1 6.046 2.523l-.071-1.24a9.594 9.594 0 0 1 5.624-2.061c.076.113.28.383.452.77 2.217.027 4.48 1.002 6.05 2.5l-.066-1.18a9.473 9.473 0 0 1 5.662-2.104c.14.205.285.458.418.767h.042c2.233.032 4.46 1.049 6.056 2.567l-.08-1.25a9.61 9.61 0 0 1 5.663-2.106c.076.113.405.77.458.77 4.732.22 8.509 3.042 8.702 8.904.148 4.834-4.084 8.72-8.94 8.656m.253-18.69a9.884 9.884 0 0 0-6.193 2.066A9.857 9.857 0 0 0 34.955.736a9.846 9.846 0 0 0-6.194 2.06A9.897 9.897 0 0 0 22.847.75a9.923 9.923 0 0 0-6.167 2.033 9.941 9.941 0 0 0-5.881-2.03C5.318.684.789 5.082.713 10.537c-.074 5.456 4.335 9.963 9.816 10.037a9.869 9.869 0 0 0 6.167-2.041 9.894 9.894 0 0 0 5.889 2.03 9.885 9.885 0 0 0 6.197-2.062 9.857 9.857 0 0 0 5.903 2.049 9.91 9.91 0 0 0 6.195-2.056 9.958 9.958 0 0 0 5.905 2.044c5.48.068 10.009-4.316 10.087-9.776.072-5.46-4.34-9.968-9.82-10.047"/>
        <g transform="translate(0 .286)">
            <mask id="b" fill="#fff">
                <use xlink:href="#a"/>
            </mask>
            <path fill="#575859" d="M-1 22h59.585V-1.286H-1z" mask="url(#b)"/>
        </g>
        <path fill="#575859" d="M10.605 18.075c-4.014-.056-7.24-3.383-7.193-7.426.057-4.035 3.378-7.282 7.39-7.233a7.223 7.223 0 0 1 4.027 1.289 9.944 9.944 0 0 0-2.033 5.9 9.9 9.9 0 0 0 2.034 6.163c-.89.592-2.398 1.329-4.225 1.307m3.112-4.083a9.387 9.387 0 0 1-.565-3.387 9.543 9.543 0 0 1 2.052-5.806c.486-.014.979-.022 1.26-.022a8.23 8.23 0 0 0-5.648-2.351c-4.56-.063-8.327 3.629-8.392 8.209-.047 4 2.73 7.384 6.462 8.227.126-.162.268-.34.408-.517.421.08.86.12 1.304.127 1.733.023 3.335-.531 4.711-1.56l1.15.02a8.953 8.953 0 0 1-1.85-2.78 4.202 4.202 0 0 1-.892-.16"/>
        <g transform="translate(2 2.286)">
            <mask id="d" fill="#fff">
                <use xlink:href="#c"/>
            </mask>
            <path fill="#575859" d="M-1.288 18.288h17.464V-1.573H-1.288z" mask="url(#d)"/>
        </g>
        <path fill="#575859" d="M16.734 15.186a7.39 7.39 0 0 1-1.32-4.325 7.422 7.422 0 0 1 1.312-4.123 7.44 7.44 0 0 1 1.318 4.332 7.385 7.385 0 0 1-1.31 4.116m1.332-6.635c.157-.416.453-.639.453-.639-.273-.98-1.06-2.009-1.779-2.748a8.613 8.613 0 0 0-2.329 5.681c-.04 1.491.531 3.852 1.662 5.17.215.252.387.533.681.792l.03-1.073c1.082-1.296 1.64-2.965 1.662-4.657a7.91 7.91 0 0 0-.38-2.526"/>
        <g transform="translate(14 4.286)">
            <mask id="f" fill="#fff">
                <use xlink:href="#e"/>
            </mask>
            <path fill="#575859" d="M-1.302 14.233h7.534V-.834h-7.534z" mask="url(#f)"/>
        </g>
        <path fill="#575859" d="M29.064 14.869a7.01 7.01 0 0 1-1.309-4.177 7.033 7.033 0 0 1 1.301-3.966 7.072 7.072 0 0 1 1.305 4.17 7.076 7.076 0 0 1-1.297 3.973m1.317-6.422c.16-.405.466-.625.466-.625-.24-.812-1.098-2-1.783-2.658-1.42 1.444-2.298 3.379-2.325 5.519-.031 2.232.877 4.277 2.37 5.782l.027-.976c.919-1.42 1.61-2.79 1.631-4.584a7.233 7.233 0 0 0-.386-2.458"/>
        <g transform="translate(26 4.286)">
            <mask id="h" fill="#fff">
                <use xlink:href="#g"/>
            </mask>
            <path fill="#575859" d="M-.975 13.89h7.534V-.835H-.975z" mask="url(#h)"/>
        </g>
        <path fill="#575859" d="M34.809 18.067a7.405 7.405 0 0 1-4.126-1.304 9.84 9.84 0 0 0 2.04-5.869 9.802 9.802 0 0 0-2.054-6.151 7.375 7.375 0 0 1 4.34-1.325 7.47 7.47 0 0 1 4.107 1.305 9.86 9.86 0 0 0 .013 12.029c-.9.588-2.446 1.345-4.32 1.315m3.198-4.089a9.465 9.465 0 0 1-.573-3.375 9.512 9.512 0 0 1 2.085-5.807l1.259.005c-1.568-1.46-3.551-2.345-5.754-2.376a8.433 8.433 0 0 0-5.89 2.284 8.713 8.713 0 0 1 2.443 6.171 8.899 8.899 0 0 1-2.405 5.934 8.374 8.374 0 0 0 3.888 2.048c.129-.169.273-.347.415-.525.43.08.875.122 1.324.129 1.905.029 3.509-.662 4.87-1.568l1.07-.03a9.015 9.015 0 0 1-1.823-2.723 4.028 4.028 0 0 1-.91-.167"/>
        <g transform="translate(29 2.286)">
            <mask id="j" fill="#fff">
                <use xlink:href="#i"/>
            </mask>
            <path fill="#575859" d="M-1.577 18.288H13.49V-1.573H-1.577z" mask="url(#j)"/>
        </g>
        <path fill="#575859" d="M47.01 18.075a7.125 7.125 0 0 1-4.027-1.305 9.956 9.956 0 0 0 2.004-5.87 10.004 10.004 0 0 0-2.018-6.155 7.144 7.144 0 0 1 4.238-1.327c3.99.054 7.198 3.395 7.147 7.43-.054 4.037-3.354 7.276-7.344 7.227m7.808-10.336c-.653-2.352-3.946-5.313-7.596-5.313-2.22-.031-4.253.845-5.76 2.275a8.941 8.941 0 0 1 2.407 6.185c-.028 2.128-.88 4.41-2.378 5.938a8.327 8.327 0 0 0 3.81 2.038l.409-.523c.42.084.855.128 1.294.133 4.206.055 7.679-3.363 7.743-7.616a7.783 7.783 0 0 0-.38-2.488 1.49 1.49 0 0 1 .45-.63"/>
        <g transform="translate(41 2.286)">
            <mask id="l" fill="#fff">
                <use xlink:href="#k"/>
            </mask>
            <path fill="#575859" d="M-1.249 18.288h16.78V-1.573h-16.78z" mask="url(#l)"/>
        </g>
        <path fill="#575859" d="M41.05 15.133a7.305 7.305 0 0 1-1.31-4.295 7.398 7.398 0 0 1 1.293-4.072 7.314 7.314 0 0 1 .016 8.367m1.32-6.594c.166-.416.463-.639.463-.639-.27-.96-1.072-2.002-1.799-2.737-1.402 1.49-2.28 3.468-2.309 5.66a8.384 8.384 0 0 0 2.407 5.984l.013-1.03c1.088-1.469 1.585-2.777 1.614-4.717a7.672 7.672 0 0 0-.39-2.52"/>
        <g transform="translate(38 4.286)">
            <mask id="n" fill="#fff">
                <use xlink:href="#m"/>
            </mask>
            <path fill="#575859" d="M-.989 14.233h7.534V-.834H-.989z" mask="url(#n)"/>
        </g>
        <path fill="#575859" d="M22.813 18.065a7.435 7.435 0 0 1-4.108-1.279 9.777 9.777 0 0 0 2.072-5.893 9.842 9.842 0 0 0-2.087-6.178 7.47 7.47 0 0 1 4.317-1.296 7.5 7.5 0 0 1 4.147 1.308 9.853 9.853 0 0 0-2.052 5.872 9.814 9.814 0 0 0 2.06 6.142c-.901.593-2.464 1.354-4.35 1.324m3.226-4.081a9.433 9.433 0 0 1 1.528-9.189l1.207-.028c-1.605-1.462-3.498-2.313-5.753-2.342a8.42 8.42 0 0 0-5.87 2.268c1.591 1.675 2.502 3.778 2.475 6.185a8.766 8.766 0 0 1-2.476 5.956 8.587 8.587 0 0 0 3.907 2.028c.13-.173.267-.348.42-.528.431.079.878.123 1.33.127 1.584.026 3.643-.502 4.85-1.58l1.137-.005a8.919 8.919 0 0 1-1.84-2.732 4.488 4.488 0 0 1-.915-.16"/>
        <g transform="translate(17 2.286)">
            <mask id="p" fill="#fff">
                <use xlink:href="#o"/>
            </mask>
            <path fill="#575859" d="M-1.563 18.288h15.067V-1.573H-1.563z" mask="url(#p)"/>
        </g>
    </g>
</svg>
