<svg xmlns="http://www.w3.org/2000/svg" xmlns:xlink="http://www.w3.org/1999/xlink" width="41" height="41" viewBox="0 0 41 41">
    <defs>
        <path id="a" d="M0 .917h40.051V41H0z"/>
    </defs>
    <g fill="none" fill-rule="evenodd">
        <g>
            <mask id="b" fill="#fff">
                <use xlink:href="#a"/>
            </mask>
            <path fill="#575859" d="M39.543 20.804c-.465-7.914-3.97-13.947-11.138-17.366-7.36-3.512-14.412-2.48-20.82 2.566-2.201 1.734-3.848 3.948-5.072 6.471a19.275 19.275 0 0 0-1.94 7.921c.365-.35.676-.729 1.063-1 .526-.37.902-.834 1.12-1.425.145-.388.247-.79.326-1.049.04 1.036.055 2.211.137 3.382.287 4.088 1.445 7.937 3.267 11.593.479.961.978 1.931 1.81 2.64 2.257 1.923 4.856 3.106 7.81 3.482 2.439.31 4.882.32 7.327.077 2.31-.23 4.492-.869 6.464-2.122 1.094-.695 2.233-1.369 2.899-2.535.627-1.1 1.236-2.218 1.742-3.377 1.739-3.987 2.574-8.168 2.54-12.52-.001-.17-.023-.34-.028-.509-.005-.169-.001-.337-.001-.506.377 1.66.81 3.273 2.494 4.277zM18.715 41c-.736-.102-1.476-.186-2.21-.312C8.666 39.338 2.145 33.168.51 25.377c-1.497-7.132.31-13.403 5.416-18.615 3.415-3.485 7.64-5.38 12.52-5.779C26.393.331 34.022 4.536 37.73 11.61c3.992 7.617 2.763 16.8-3.131 23.063-3.51 3.73-7.841 5.81-12.95 6.26-.114.01-.227.045-.34.067h-2.594z" mask="url(#b)"/>
        </g>
        <path fill="#575859" d="M15.71 13.514c-.015.095-.029.146-.028.197l.23 11.927c.021 1.06.032 2.118.067 3.178.003.113.131.316.21.32.57.027 1.143.015 1.763.015V13.514H15.71zm13.175 15.617l.462-13.763h1.6V13.53h-5.54v1.85h1.586V29.13h1.892zm-16.19-.007V22.04h1.662v-1.868h-1.666v-4.787h2.16v-1.848h-4.502l.444 15.587h1.901zm12.868.005c.015-.088.037-.163.038-.239.077-3.442.138-6.885-.368-10.307-.24-1.633-.61-3.235-1.313-4.746-.108-.233-.236-.328-.502-.325-1.296.014-2.593.006-3.889.008-.112 0-.225.018-.367.032l.183 15.57h1.874V22.11h2.385c.046 1.19.108 2.35.13 3.513.022 1.161.005 2.323.005 3.506h1.824zM6.883 15.992c.1-1.61.198-3.196.663-4.746.253-.84.745-1.443 1.5-1.874 1.431-.816 2.994-1.24 4.596-1.515 4.558-.785 9.117-.782 13.653.152 1.018.21 2.005.58 2.992.918 1.58.542 2.385 1.69 2.665 3.323.352 2.058.377 4.118.196 6.182-.388 4.421-1.34 8.723-2.69 12.953-.474 1.48-1.337 2.413-2.698 3.04-1.387.64-2.846.962-4.345 1.13-2.827.316-5.644.263-8.44-.298a10.295 10.295 0 0 1-3.807-1.599 2.634 2.634 0 0 1-1.022-1.3c-1.333-3.625-2.225-7.359-2.742-11.179-.233-1.72-.352-3.458-.522-5.187z"/>
        <path fill="#575859" d="M20.802 6.442c-3.827.012-6.909.252-9.889 1.2-.856.272-1.673.686-2.477 1.096-.746.381-1.204 1.03-1.465 1.832-.397 1.218-.569 2.47-.629 3.741-.158 3.298.251 6.55.924 9.762.45 2.15 1.076 4.264 1.582 6.404.137.581.167 1.198.162 1.8-.002.433-.215.521-.632.35a2.422 2.422 0 0 1-1.3-1.229c-.492-1.055-.985-2.112-1.397-3.199a29.028 29.028 0 0 1-1.874-11.465c.066-1.782.398-3.52 1.062-5.188C5.504 9.95 6.54 8.696 8 7.796c4.07-2.516 8.493-3.72 13.28-3.474 3.988.206 7.666 1.427 11.041 3.557 1.844 1.163 2.857 2.904 3.441 4.953.613 2.147.718 4.34.598 6.548-.213 3.94-1.2 7.687-2.865 11.258-.288.618-.535 1.273-1.13 1.69-.3.208-.648.518-.97.303-.189-.125-.229-.582-.21-.88a6.808 6.808 0 0 1 .264-1.52c1.18-3.879 1.994-7.829 2.35-11.866.202-2.302.238-4.608-.283-6.884-.01-.05-.024-.1-.033-.152-.268-1.51-1.174-2.476-2.552-3.087-1.589-.706-3.255-1.11-4.96-1.376-1.95-.305-3.913-.446-5.168-.424M11.617 35.41c.417.073.833.143 1.25.219 1.501.275 2.992.646 4.505.812 3.25.357 6.474.139 9.641-.733.507-.14 1.034-.206 1.552-.306l.09.14c-.116.155-.217.323-.351.46-.651.665-1.507.917-2.372 1.137-2.459.625-4.963.679-7.48.578-1.692-.07-3.358-.287-4.979-.801-.634-.202-1.2-.514-1.663-.996-.103-.108-.177-.242-.264-.365l.071-.144"/>
        <path fill="#575859" d="M21.157 15.32c1.424.005 1.146-.3 1.538 1.038.363 1.248.561 2.546.845 3.882h-2.383v-4.92z"/>
    </g>
</svg>
