<svg xmlns="http://www.w3.org/2000/svg" xmlns:xlink="http://www.w3.org/1999/xlink" width="48" height="42" viewBox="0 0 48 42">
    <defs>
        <path id="a" d="M0 .671h47.462V41H0z"/>
    </defs>
    <g fill="none" fill-rule="evenodd">
        <path fill="#575859" d="M32.518 19.44c-.75.031-1.93-.194-1.897.962 1.017.05 2.075.034 3.064.01.183-.824-.623-.995-1.167-.973"/>
        <g transform="translate(0 .33)">
            <mask id="b" fill="#fff">
                <use xlink:href="#a"/>
            </mask>
            <path fill="#575859" d="M42.27 22.905c-.675.697-2.207.729-2.75-.153-.575-.941-.997-1.964-1.53-2.885-.067-.118-.16-.288-.29-.246-.15.049-.216.225-.216.38-.01 1.119.011 2.252-.003 3.366-.474.052-.828 0-1.33.03-.015-1.064-.03-2.177 0-3.24.02-.56-.167-1.198.186-1.652.422-.535 1.198-.605 1.833-.433.4.112.707.447.895.835.482.989 1.013 1.922 1.524 2.92.119.237.516.134.508-.143-.026-1.266.005-2.437-.008-3.684.48-.002.89-.03 1.361.015.025 1.365-.004 2.749.014 4.103.004.266-.017.608-.194.787M23.743 36.079c-6.63 0-12.315-3.83-14.75-9.297 6.944.52 14.947.555 14.947.555a149.41 149.41 0 0 0 14.512-.483c-2.451 5.425-8.114 9.225-14.708 9.225M8.079 22.597c-.45-.954-.942-1.794-1.382-2.76-.103-.22-.474-.254-.489-.006-.042 1.11-.01 2.11-.01 3.215 0 .219-.045.39-.328.359-.268-.032-.364-.045-.623-.003-.311.048-.418-.111-.41-.356.026-1.293.014-2.535.003-3.808-.002-.354.074-.722.372-.931.51-.363 1.155-.407 1.732-.2.381.138.636.447.811.816.455.97.935 1.768 1.432 2.81.17.358.636.204.612-.19-.076-1.25-.008-2.32-.021-3.54.492-.018.865-.018 1.351 0 .011 1.42.007 2.853.007 4.27 0 .299-.132.625-.365.788-.795.569-2.25.48-2.692-.464m5.564.774c-.566.048-.965-.011-1.558.03-.033-1.794-.008-3.606-.008-5.406a14.608 14.608 0 0 1 1.566 0c.011 1.792.011 3.585 0 5.376m.72-1.116a518.15 518.15 0 0 1 4.319 0c.29 0 .265-.376-.005-.463-1.181-.378-2.201-.824-3.354-1.208-.412-.142-.748-.438-.86-.89-.068-.28-.136-.458-.035-.762.465-1.363 2.034-.89 3.174-.942 1.058-.046 2.261.008 3.341-.013.054.419.028.743.003 1.153-1.483.02-2.946.004-4.426.009a.531.531 0 0 0-.314.095c-.177.115-.014.363.162.407 1.056.27 2.01.867 3.07 1.092 1.123.24 2.24 1.443 1.018 2.518-.116.103-.116.007-.248.089-.13.08-.223.044-.336.044-1.83.014-3.639-.003-5.474.008-.075-.36-.01-.751-.035-1.137m9.297-2.641c1.48.625 2.959.965 4.305 1.727.297.165.297.638.314.945.02.328-.189.69-.476.917-.213.168-.498.186-.773.186-1.774 0-3.544-.002-5.317.003-.082-.355-.021-.75-.035-1.135 1.467-.006 2.813-.008 4.314 0 .29.002.273-.377 0-.465-1.183-.381-2.207-.82-3.363-1.208-.41-.142-.744-.436-.853-.89-.076-.281-.139-.458-.038-.762.468-1.363 2.034-.89 3.172-.941 1.064-.047 2.264.007 3.338-.013.064.422.022.74.02 1.156-1.518.003-2.919.016-4.463-.002-.314-.002-.427.363-.145.482m11.634 1.598c.043.725-.008 1.427-.008 2.156a13.44 13.44 0 0 1-1.488.007c-.066-.72.051-1.35-.072-2.091a28.033 28.033 0 0 0-3.108-.007c-.06.649-.038 1.14-.026 1.769.007.237-.095.38-.354.359-.306-.025-.483-.045-.773 0-.282.043-.45-.116-.456-.354-.008-1.375-.125-2.768.073-4.12.041-.305.276-.603.546-.737.262-.14.596-.21.905-.216.785-.018 1.664.013 2.425-.006.813-.02 1.985-.067 2.245.814.243.822.043 1.608.09 2.426M23.744 5.59c6.614 0 12.283 3.817 14.728 9.26-11.63-.974-23.913-.55-29.328-.281 2.513-5.292 8.098-8.98 14.6-8.98m22.469 10.164c-.676-.105-1.365-.202-2.06-.296C41.681 6.933 33.481.67 23.742.67 14.08.67 5.937 6.835 3.393 15.258c-.566.108-1.08.216-1.61.325-1.498.27-1.599 1.322-1.599 1.389-.334 1.356-.135 5.86 0 7.384.101 1.627 1.43 1.493 1.494 1.526.497.108 1.05.205 1.643.297 2.46 8.54 10.67 14.82 20.424 14.82 9.714 0 17.894-6.236 20.39-14.73a77.402 77.402 0 0 0 1.989-.277c1.2-.103 1.224-1.537 1.224-1.55.227-2.091.05-7.163.044-7.163-.026-1.498-1.18-1.526-1.18-1.526" mask="url(#b)"/>
        </g>
    </g>
</svg>
