<svg xmlns="http://www.w3.org/2000/svg" xmlns:xlink="http://www.w3.org/1999/xlink" width="33" height="41" viewBox="0 0 33 41">
    <defs>
        <path id="a" d="M0 0h32.034v40.543H0z"/>
    </defs>
    <g fill="none" fill-rule="evenodd">
        <mask id="b" fill="#fff">
            <use xlink:href="#a"/>
        </mask>
        <path fill="#575859" d="M16.072 28.86l4.817-8.641-4.806-8.624-4.823 8.624 4.812 8.641zm-5.119-8.641l5.12 9.201 5.124-9.201h2.021l8.503-.005L20.637.275H11.42L.324 20.214l8.767.005 6.333 11.079-3.164 7.158h.505c.374-.649 10.453-18.237 10.453-18.237L16.781 9.086c1.043-2.369 2.137-4.73 3.142-7.12h-.489L9.102 20.219h1.851zM0 20.214L11.205 0h9.646l11.183 20.214-11.309 20.33h-9.404L.001 20.214z" mask="url(#b)"/>
    </g>
</svg>
