<svg xmlns="http://www.w3.org/2000/svg" xmlns:xlink="http://www.w3.org/1999/xlink" width="35" height="31" viewBox="0 0 35 31">
    <defs>
        <path id="a" d="M0 .5h34.496v18.875H0z"/>
    </defs>
    <g fill="none" fill-rule="evenodd">
        <g transform="translate(0 11.503)">
            <mask id="b" fill="#fff">
                <use xlink:href="#a"/>
            </mask>
            <path fill="#575859" d="M.997 17.742l.086.043c.128-.106.259-.21.385-.317 2.17-1.839 4.404-3.595 6.739-5.224 1.953-1.362 3.942-2.673 6.158-3.578a12.524 12.524 0 0 1 2.475-.71c.842-.153 1.673.1 2.47.382 1.962.693 3.733 1.75 5.462 2.882 2.94 1.922 5.697 4.085 8.379 6.348.09.077.19.146.283.217.035-.042.046-.05.047-.058.011-.208.007-.42.034-.626.155-1.204-.273-2.201-1.072-3.074-2.446-2.673-4.989-5.25-7.69-7.67-1.639-1.47-3.309-2.904-5.197-4.056-.628-.384-1.275-.732-2.017-.868-.264-.048-.344.02-.343.276.005.63-.002 1.26-.008 1.89-.006.75-.29 1.32-1.034 1.602-.315.12-.62.262-.927.401-4.472 2.023-8.564 4.646-12.32 7.792-.436.364-.88.726-1.27 1.136-.894.934-.637 2.101-.64 3.212m33.495-.929c-.043.691-.053 1.386-.14 2.071-.071.553-.371.635-.8.267-2.805-2.41-5.693-4.716-8.76-6.788-1.703-1.15-3.444-2.237-5.368-2.996-.835-.33-1.704-.638-2.608-.455-.808.164-1.617.402-2.37.73-2.321 1.012-4.397 2.44-6.442 3.91-2.405 1.729-4.713 3.58-6.958 5.51-.18.154-.349.385-.625.286-.287-.103-.311-.396-.313-.639-.011-1.177-.319-2.38.157-3.523.226-.546.5-1.111.893-1.542C4.488 9.992 7.954 6.477 11.822 3.38c1.15-.923 2.358-1.764 3.683-2.432C16.65.37 17.767.342 18.924.916c1.455.722 2.758 1.663 4.014 2.674 3.06 2.462 5.835 5.225 8.552 8.05.57.592 1.133 1.188 1.682 1.798.863.957 1.381 2.053 1.32 3.375" mask="url(#b)"/>
        </g>
        <path fill="#575859" d="M1.02 17.363c.192-.155.306-.244.417-.338 2.139-1.81 4.335-3.548 6.633-5.153 1.994-1.395 4.043-2.694 6.276-3.696 1.887-.844 3.73-.92 5.638-.068a33.861 33.861 0 0 1 4.778 2.635c2.894 1.897 5.616 4.02 8.258 6.248.13.11.27.21.483.374 0-.453-.02-.808.004-1.16.066-.99-.324-1.816-.965-2.519-3.195-3.503-6.532-6.863-10.216-9.863-1.16-.944-2.35-1.852-3.716-2.491-.357-.166-.753-.255-1.134-.362-.202-.058-.284.042-.28.25.008.505-.035 1.013.004 1.514.087 1.123-.413 1.753-1.456 2.2-5.12 2.186-9.707 5.218-13.874 8.892-.423.374-.73.838-.81 1.389-.078.525-.056 1.066-.07 1.599-.003.151.016.304.03.549m-.973-.73c-.171-1.556.457-2.793 1.493-3.9C4.75 9.303 8.04 5.955 11.71 3.004c1.207-.97 2.451-1.9 3.874-2.539A6.052 6.052 0 0 1 17.15.018c.586-.087 1.14.154 1.669.395 1.43.654 2.689 1.572 3.907 2.545 3.409 2.722 6.478 5.8 9.464 8.966.561.595 1.11 1.212 1.582 1.877.553.775.752 1.672.673 2.632-.05.616-.038 1.239-.1 1.854-.02.203-.143.482-.3.558-.124.059-.409-.098-.562-.23-2.462-2.114-4.996-4.137-7.651-6.007-1.938-1.365-3.916-2.668-6.114-3.593-.816-.344-1.65-.632-2.56-.61-.96.025-1.832.361-2.689.742-2.177.97-4.148 2.283-6.081 3.655-2.536 1.802-4.96 3.741-7.317 5.77-.186.16-.37.41-.65.286-.278-.121-.28-.417-.293-.684l-.08-1.54"/>
    </g>
</svg>
