<svg xmlns="http://www.w3.org/2000/svg" xmlns:xlink="http://www.w3.org/1999/xlink" width="56" height="24" viewBox="0 0 56 24">
    <defs>
        <path id="a" d="M0 .672h55.619V23H0z"/>
    </defs>
    <g fill="none" fill-rule="evenodd">
        <g transform="translate(0 .328)">
            <mask id="b" fill="#fff">
                <use xlink:href="#a"/>
            </mask>
            <path fill="#575859" d="M28.72 22.242c1.658-.1 3.828-.154 5.98-.385a78.847 78.847 0 0 0 6.734-1.015c1.537-.302 3.032-.822 4.534-1.284a17.708 17.708 0 0 0 4.344-1.986c1.227-.782 2.433-1.598 3.312-2.799.52-.71.867-1.487.955-2.369.148-1.457-.51-2.632-1.388-3.683a10.348 10.348 0 0 0-3.286-2.608 36.782 36.782 0 0 0-4.027-1.759c-1.532-.553-3.097-1.046-4.684-1.412-1.797-.414-3.627-.694-5.452-.97-2.498-.376-5.02-.506-7.542-.54-1.146-.014-2.294.065-3.441.121-1.24.06-2.481.126-3.72.215A45.766 45.766 0 0 0 12.5 3.193c-2.278.612-4.555 1.287-6.647 2.444-1.625.897-3.115 1.946-4.084 3.574-.714 1.198-.81 2.5-.34 3.797.536 1.474 1.594 2.583 2.869 3.423 1.199.79 2.484 1.46 3.768 2.11 1.609.815 3.335 1.341 5.072 1.805 1.289.344 2.593.66 3.909.87 2.043.326 4.097.61 6.156.8 1.662.155 3.337.144 5.517.226zm.397.74c-1.292 0-2.586.045-3.875-.01-2.39-.1-4.776-.298-7.131-.726-1.56-.283-3.107-.638-4.651-.995a29.664 29.664 0 0 1-5.562-1.903c-1.762-.797-3.468-1.689-4.978-2.91C1.843 15.565.9 14.573.38 13.261c-.33-.835-.47-1.697-.32-2.606.278-1.688 1.282-2.907 2.575-3.889.936-.712 1.935-1.38 2.993-1.882 1.44-.68 2.947-1.23 4.457-1.746a39.97 39.97 0 0 1 3.924-1.1c1.325-.305 2.672-.52 4.017-.735.98-.159 1.969-.3 2.96-.368C22.675.821 24.366.742 26.06.7a59.855 59.855 0 0 1 4.258.02c1.429.064 2.858.2 4.279.372 1.537.185 3.073.404 4.595.69 1.488.277 2.967.616 4.43 1.002 2.33.614 4.543 1.537 6.654 2.711 1.3.724 2.53 1.546 3.55 2.627 1 1.057 1.759 2.277 1.792 3.793.03 1.371-.475 2.563-1.374 3.597-1.197 1.377-2.65 2.415-4.283 3.207-1.01.49-2.013 1.002-3.06 1.398-1.16.438-2.347.82-3.552 1.108-1.828.437-3.671.84-5.528 1.132-2.41.38-4.84.597-7.284.636-.473.008-.947.001-1.42.001v-.012z" mask="url(#b)"/>
        </g>
        <path fill="#575859" d="M19.668 10.972l.047.115c-.097.113-.189.232-.292.338-.991 1.013-1.931 2.085-2.992 3.016-.813.713-1.799 1.147-2.96 1.07-.876-.06-1.8-1.216-1.255-2.05.197-.3.467-.561.734-.805.198-.182.494-.27.659-.471.147-.18.265-.473.229-.688-.046-.275-.359-.296-.591-.208a7.707 7.707 0 0 0-1.151.533c-.824.486-1.426 1.155-1.62 2.13-.22 1.1.066 2.052.897 2.792.719.64 1.592.79 2.55.728 1.901-.125 3.436-.958 4.624-2.388.673-.81 1.223-1.734 1.76-2.647.664-1.131 1.534-1.908 2.896-1.995.662-.042 1.368-.29 1.875.426.052.074.319-.005.487-.013-.013-.153-.017-.307-.043-.456-.01-.06-.069-.111-.11-.172.215-.162.425-.294.603-.461.317-.297.384-.881.17-1.251-.171-.292-.592-.434-1.011-.292-.435.147-.694.482-.796.923-.069.3-.221.425-.538.436-.364.013-.726.098-1.088.15-.118.017-.236.032-.408.054.051-.111.061-.16.09-.191a15.786 15.786 0 0 1 2.999-2.636c.121-.083.341-.07.503-.036.499.102.987.248 1.485.352 1.497.309 2.999.536 4.534.615 1.457.075 2.799-.186 4.065-.878.406-.222.618-.61.69-1.064.036-.232-.06-.374-.314-.344-.423.05-.843.125-1.267.164-1.674.153-3.345.34-5.023.423-.72.036-1.455-.141-2.18-.24a759.99 759.99 0 0 1-5.029-.703c-1.453-.206-2.9-.25-4.347.043-1.103.222-2.155.58-3.065 1.25-.768.568-1.435 1.189-1.406 2.31.02.76.857 1.733 1.685 1.787 1.572.102 2.763-.578 3.638-1.838.219-.316.319-.721.159-1.117-.04-.097-.151-.165-.228-.246-.069.072-.141.142-.207.218-.275.317-.509.687-.834.94-.508.398-1.111.575-1.768.4-.324-.086-.678-.501-.61-.743.126-.446.313-.871.696-1.167.963-.741 2.078-1.035 3.27-1.126 1.137-.087 2.24.137 3.351.31.333.052.662.13.992.198l.124.172c-.101.034-.209.055-.301.105-1.314.72-2.277 1.828-3.245 2.933-.144.164-.37.289-.582.355-.745.228-1.503.413-2.249.634-.39.116-.585.372-.464.586.167.293.425.145.66.085.5-.125 1.001-.243 1.502-.365m15.247 3.965c.055.458.081.934.176 1.396.104.514.771 1.009 1.295 1.069.929.107 1.719-.245 2.464-.727.252-.162.339-.143.457.138.282.67.917.998 1.619.79.445-.13.878-.35 1.27-.6a8.853 8.853 0 0 0 2.292-2.096c.153-.201.35-.476.09-.698-.238-.204-.461.032-.643.186-.532.448-1.047.916-1.581 1.362-.339.284-.715.505-1.174.537-.36.026-.477-.125-.308-.435.106-.195.257-.365.386-.547a14987.4 14987.4 0 0 1 2.958-4.16c.472-.665.947-1.328 1.405-2.002.086-.125.099-.3.145-.45-.138-.041-.275-.103-.415-.117-.283-.026-.571-.006-.852-.042-.346-.046-.568.072-.771.36-.696.985-1.414 1.952-2.13 2.922-.345.465-.351.46-.765.055-.033-.032-.076-.054-.113-.085-1.098-.902-2.274-.625-3.351.076-.629.41-1.151.98-1.742 1.454-.605.484-1.252.903-2.062.937-.324.014-.661-.01-.776-.403-.142-.486.023-.888.431-1.101.175.66.376.81 1.047.775.678-.037 1.184-.607 1.167-1.318-.015-.622-.448-.993-1.162-1.018-.752-.028-1.342.295-1.849.819-.077.079-.189.125-.283.187-.05-.096-.118-.188-.146-.291-.131-.466-.546-.811-1.013-.678a8.7 8.7 0 0 0-1.752.725c-.481.26-.898.638-1.411 1.014-.055-.24-.111-.412-.132-.59-.053-.42-.331-.842-.599-.881-.638-.093-1.021.4-.826 1.024.101.322.194.673.173 1.003-.065.994-1.204 2.322-2.17 2.6-.467.137-.929-.081-1.166-.507-.322-.576-.155-1.106.14-1.611.494-.847 1.284-1.374 2.108-1.85.207-.12.361-.241.309-.488-.056-.273-.277-.341-.52-.317-1.395.129-2.416.869-3.194 1.987-.381.549-.716 1.13-1.108 1.672-.269.372-.623.683-.892 1.056-.1.14-.066.38-.093.575.209.016.439.096.619.032.183-.065.319-.27.473-.416.131-.124.259-.252.426-.415l.147.358c.361.864 1.016 1.267 1.943 1.257 1.252-.012 2.257-.572 3.085-1.456.815-.87 1.556-1.81 2.385-2.666.349-.362.832-.603 1.274-.864.099-.058.305.003.421.074.051.03.043.25-.01.345-.507.906-1.021 1.81-1.554 2.703-.291.486-.625.946-.936 1.42-.093.142-.21.347.055.38a2.378 2.378 0 0 0 1.86-.518c.683-.552.98-1.375 1.405-2.105.119-.203.212-.42.317-.631l.1.028c.049.154.102.306.148.46.253.837.922 1.187 1.74.87.422-.164.819-.392 1.169-.563m18.634-2.651c-.011 1.308-.666 2.299-1.541 3.176-1.427 1.428-3.214 2.262-5.042 3.022-2.042.848-4.167 1.426-6.331 1.835a67.492 67.492 0 0 1-5.475.823c-1.799.188-3.612.249-5.422.318-1.313.05-2.633.08-3.944.018a75.63 75.63 0 0 1-4.918-.412c-1.527-.175-3.059-.37-4.562-.687a51.947 51.947 0 0 1-4.903-1.298c-1.258-.397-2.488-.906-3.687-1.461-1.483-.686-2.898-1.508-4.012-2.743-.818-.906-1.45-1.916-1.39-3.197.055-1.141.613-2.071 1.367-2.89 1.17-1.27 2.648-2.103 4.195-2.795 2.113-.942 4.332-1.574 6.593-2.072 2.223-.491 4.473-.776 6.738-.976 2.172-.194 4.349-.325 6.527-.264 1.987.056 3.972.188 5.955.323 2.202.15 4.381.5 6.531.987a51.69 51.69 0 0 1 4.68 1.307c1.232.405 2.439.907 3.61 1.464 1.117.53 2.21 1.129 3.141 1.976.857.778 1.547 1.656 1.812 2.808.055.239.053.492.078.738"/>
        <path fill="#575859" d="M40.148 13.427c-.103.25-.224.648-.418 1.007-.368.679-.886 1.232-1.633 1.493-.25.088-.553.079-.822.04-.297-.043-.416-.289-.402-.58.049-1.075 1.16-2.502 2.195-2.827.605-.191 1.092.131 1.08.867M25.407 8.759c.12.146.216.21.227.286.034.244-.152.333-.343.36-.068.009-.223-.141-.218-.151.085-.15.19-.29.334-.495"/>
    </g>
</svg>
