<svg xmlns="http://www.w3.org/2000/svg" xmlns:xlink="http://www.w3.org/1999/xlink" width="54" height="41" viewBox="0 0 54 41">
    <defs>
        <path id="a" d="M0 0h53.038v40.535H0z"/>
    </defs>
    <g fill="none" fill-rule="evenodd">
        <mask id="b" fill="#fff">
            <use xlink:href="#a"/>
        </mask>
        <path fill="#575859" d="M6.27 19.437L0 19.179v-3.651l6.823-.073C9 6.602 17.003 0 26.52 0c11.175 0 20.25 9.074 20.25 20.249 0 .332 0 .626-.038.959l6.307.258v3.615l-6.824.074c-2.213 8.814-10.179 15.38-19.695 15.38-11.213 0-20.286-9.074-20.286-20.286 0-.258 0-.516.037-.812zm2.987-3.982C11.36 7.856 18.294 2.324 26.52 2.324c9.884 0 17.925 8.04 17.925 17.925v.885l-13.352-.59 7.12-5.421-28.955.332zm-.664 4.093v.701c0 9.884 8.041 17.961 17.926 17.961 8.225 0 15.16-5.532 17.261-13.055l-28.769.332 6.934-5.349-13.352-.59z" mask="url(#b)"/>
    </g>
</svg>
