<svg xmlns="http://www.w3.org/2000/svg" xmlns:xlink="http://www.w3.org/1999/xlink" width="38" height="42" viewBox="0 0 38 42">
    <defs>
        <path id="a" d="M0 0h38v42H0z"/>
    </defs>
    <g fill="none" fill-rule="evenodd">
        <mask id="b" fill="#fff">
            <use xlink:href="#a"/>
        </mask>
        <path fill="#626364" d="M17.113 3.093c-.098-.323-.104-.615-.04-1.016.622-.098 1.513-.22 2.093-.22.084 0 .148.023.194.063a.333.333 0 0 1-.055.584c-.486.22-1.4.54-2.126.787-.032-.068-.046-.133-.066-.198m11.796 20.82c-.07-.015-.159-.025-.226-.048v.002a319.203 319.203 0 0 1-2.967-4.48c.518-1.915.753-2.38 1.164-4.2 0 0 .8.441 1.074.441.007 0 .007.002.013.002.019 0 .04-.002.064-.006v-.01c.01-.003.024-.003.024-.02.189-.808 1.48-4.615 1.712-5.84 0 0 .194.543.456 1.333.228.686.471 1.309.725 1.918.383.946.778 1.834 1.13 2.742.8 2.044 1.081 2.917 1.345 4.305.2 1.087.096 2.096-.328 2.677-.216.29-.59.66-1.147.938-.022.004-.037.013-.062.02a3.543 3.543 0 0 1-.522.194c-.077.03-.154.046-.252.067l-.145.03a4.918 4.918 0 0 1-.439.056c-.077.001-.141.005-.218.007-.087.008-.173.008-.273.008-.145-.008-.3-.015-.458-.033h-.004a8.779 8.779 0 0 1-.303-.038c-.119-.019-.232-.046-.363-.065M.256 9.093c.204-.046.467-.107.746-.116.026 0 .049-.004.083-.004.546 0 1.205.227 1.881 1.24l-.376.301-.524.415c.154.116.567.223 1.087.302a9.8 9.8 0 0 0 1.418.116c.614 0 1.171-.076 1.465-.252 0 0 .622.84 1.345 1.796.932 1.226 2.02 2.642 2.213 2.743.192.105-1.309.19-2.978.311-1.431.025-2.778.042-3.842.071-.945.013-1.635.747-1.868 1.374-.228.626-.486 1.942-.379 2.517l.537-.174c.11.205.203.363.288.512.407.694.562.921 1.273 1.192.394-1.014 1.692-1.11 2.136-1.11.104 0 .155.002.155.002l-.023 1.126c2.524-.016 2.756-1.86 2.756-1.86l4.91-.075 1.339 1.64 1.763 2.176c-2.541 2.684-4.317 6.006-6.238 9.561.923.849.595 2.589-.916 2.755-.056.002-.109.002-.164.002-.849 0-1.766-.615-2.828-.615-.189 0-.377.023-.58.065-1.703.38-1.355 1.757-2.694 3.57.298.073.584.174.887.292 1.042.442 2.057 1.166 2.778 2.002.656-.422 1.573-.578 2.518-.578 1.705 0 3.571.485 4.502.804.028.006.05.015.075.015.271 0 .366-.546.162-1.007-.162-.412-.4-1.045.032-2.086.386-.934 4.769-5.446 7.875-8.311.005 0 .045.028.103.068.26.195 1.144.862 2.057 1.538 1.682 1.251 3.897 2.549 3.897 2.549l.569-.05c.231-.054.44-.077.623-.069.12.01.23.023.328.046.045.01.083.029.14.04.082.029.17.069.253.117.063.036.119.084.176.13.02.003.024.024.047.028.382.357.523.888.523 1.301 0 .16-.019.308-.06.415a1.38 1.38 0 0 1-.222.391c-.025.029-.055.042-.072.07-.092.08-.16.154-.26.213-.041.019-.08.034-.118.052-.1.053-.215.095-.338.124-.007 0-.013 0-.013.01a2.208 2.208 0 0 1-.506.022c-.822-.061-1.718-.46-2.801.19-1.1.618-.639 2.72-1.298 3.594.432 0 .86.062 1.266.15 1.241.292 2.236.922 2.786 1.266 2.992-1.284 3.902-.873 6.946-.35.218.04.365-.578.13-.987-.194-.338-.549-1.162-.492-1.825l-.006-2.01v-5.4h-.01v-.011c-.61.078-1.105.046-1.532-.061-.401-.101-.74-.273-.995-.505 0-.007-.005-.01-.005-.015-.1-.09-.185-.183-.26-.288-.006-.008-.015-.014-.015-.02a2.451 2.451 0 0 1-.366-.73c-.243-.794-.96-2.39-1.437-3.419 0 0 2.006-.053 3.63-1.155.356-.241.693-.533.98-.892.208-.249.398-.56.55-.92.31-.697.492-1.602.338-2.7-.247-1.81-.897-3.334-1.286-4.36-.53-1.43-1.63-3.897-2.057-5.368-.3-1.047-.507-1.794-.537-2.433a3.569 3.569 0 0 1 0-.45V8.1c.03-.451.16-.871.43-1.345.29-.558.904-1.089 1.63-1.036.174.01.377.052.56.153.652.31.507.49.44.606a5.702 5.702 0 0 0-.525 1.08c-.382.989-.482 2.053-.245 2.87.281.956.935 1.8 1.549 2.407.39.384.76.68 1.009.84 0 0 1.09.717 1.309.553.51-.394-.817-2.292-.768-2.908.022-.391.13-.737.261-1.14.134-.46.413-1.154.492-1.842.149-1.333-.264-2.598-1.081-3.453a3.421 3.421 0 0 0-2.044-1.045c-.542-.077-2.76-.42-4.307 1.921-.141.213-.31.568-.454.984-.141.46-.245.982-.224 1.483-.76-1.844-1.68-3.934-2.693-5.477-.13-.166-.522-.652-.908-1.068-.317-.342-.631-.646-.772-.688C24.113.65 21.607.04 20.908 0c0 0 .017.006.017.017-.017-.01-.021-.011-.032-.011-.556.057-4.714 1.564-4.852 1.751 0 0-.48.507-.48.514-.983.247-3.021.568-3.176.76-.431.541-.13 1.048.013 1.27.051.08.38 1.25.961 1.25h.145l1.443.002c.354-.619 1.043-.957 1.746-.957.776 0 1.55.42 1.889 1.341a17.28 17.28 0 0 0-.236.103c-.386.168-.768.321-1.378.321-.162 0-.341-.015-.535-.04a.55.55 0 0 1-.08-.006 5.304 5.304 0 0 0-.692-.047c-.695 0-1.334.137-1.724.284-.24.092-.388.178-.388.243.023.317 1.661.418 2.09.422.487.015 1.14.052 1.813.052.312 0 .634-.008.936-.035a2.148 2.148 0 0 1-.273.306c-.505.45-1.23.638-1.761.638h-2.52c.126.543.333 1.041.636 1.452h1.03c.462.034.515.153.456.359-.022.109-.073.23-.118.37a7.888 7.888 0 0 1-.225.57c-.275.707-.698 1.526-1.286 2.061-2.552-2.26-5.98-5.085-8.389-6.879-.469-.336-1.84-.611-3.15-.611-.709 0-1.413.08-1.922.277-.422.16-.683.508-.834.787l.72.212C-.574 7.58.255 9.093.255 9.093" mask="url(#b)"/>
    </g>
</svg>
