<svg xmlns="http://www.w3.org/2000/svg" xmlns:xlink="http://www.w3.org/1999/xlink" width="35" height="35" viewBox="0 0 35 35">
    <defs>
        <path id="a" d="M0 .774h34.66v19.06H0z"/>
        <path id="c" d="M.042.056h34.621v18.377H.042z"/>
    </defs>
    <g fill="none" fill-rule="evenodd">
        <g transform="translate(0 14.332)">
            <mask id="b" fill="#fff">
                <use xlink:href="#a"/>
            </mask>
            <path fill="#575859" d="M.01 10.312c1.246.069 2.459.147 3.672.198 2.156.092 4.312.205 6.468.244 4.242.076 8.482.11 12.724.153.74.008 1.451-.132 2.043-.66.122-.108.218-.248.372-.426C16.809 8.277 8.406 6.746 0 5.217V.774c.645.126 1.276.245 1.906.37 3.094.613 6.187 1.224 9.28 1.84 3.782.75 7.565 1.506 11.347 2.256 3.605.715 7.21 1.427 10.814 2.141l1.072.212c.168.032.248.105.24.315-.069 2.054-.111 4.11-.194 6.163-.025.603-.115 1.21-.232 1.802-.328 1.655-1.314 2.701-2.812 3.119-.944.265-1.93.407-2.906.482-3.64.273-7.285.367-10.931.359-3.581-.008-7.159-.109-10.735-.333-1.592-.099-3.183-.213-4.775-.326a3.463 3.463 0 0 1-.584-.11c-.699-.18-.984-.48-1.055-1.239A89.88 89.88 0 0 1 .2 14.477C.125 13.165.073 11.853.01 10.54c-.002-.067 0-.136 0-.228" mask="url(#b)"/>
        </g>
        <g transform="translate(0 1.11)">
            <mask id="d" fill="#fff">
                <use xlink:href="#c"/>
            </mask>
            <path fill="#575859" d="M9.235 9.438c8.472 1.677 16.944 3.352 25.429 5.03v3.965L.045 12.052c0-.433-.01-.853.003-1.276.046-1.683.078-3.367.157-5.05.03-.62.13-1.245.267-1.85C.845 2.224 1.899 1.262 3.394.87a14.495 14.495 0 0 1 2.617-.42c4.365-.32 8.738-.463 13.112-.364 3.14.072 6.28.22 9.418.362 1.387.063 2.771.196 4.156.302.131.01.263.036.392.068.796.2 1.067.476 1.154 1.352.106 1.06.157 2.127.218 3.19.065 1.092.113 2.185.168 3.276.004.087 0 .175 0 .3-.153 0-.299.005-.443 0-3.016-.14-6.029-.339-9.046-.405-3.983-.09-7.969-.08-11.953-.102a18.79 18.79 0 0 0-2.205.097c-.417.047-.83.211-1.224.382-.208.09-.37.304-.552.46l.03.07" mask="url(#d)"/>
        </g>
    </g>
</svg>
