<svg xmlns="http://www.w3.org/2000/svg" xmlns:xlink="http://www.w3.org/1999/xlink" width="52" height="33" viewBox="0 0 52 33">
    <defs>
        <path id="a" d="M0 0h52v33H0z"/>
    </defs>
    <g fill="none" fill-rule="evenodd">
        <mask id="b" fill="#fff">
            <use xlink:href="#a"/>
        </mask>
        <path fill="#575859" d="M29.686 29.231c2.087-2.518 3.352-7.186 3.352-12.592l-.013-.717c5.524-1.07 9.43-3.37 10.479-6.13 2.246 2.073 3.442 4.458 3.442 6.945 0 6.172-7.349 11.42-17.26 12.494zm-3.688-4.376c-1.467 0-3.034-3.37-3.093-8.413 1.016.078 2.052.125 3.093.125 1.045 0 2.078-.047 3.093-.125-.059 5.043-1.625 8.413-3.093 8.413zM3.137 16.459c0-.082.01-.162.01-.242 0 .08-.008.16-.008.242 0 7.515 8.994 13.698 20.523 14.444-11.529-.746-20.525-6.926-20.525-14.444zm5.36-6.667c1.044 2.76 4.951 5.06 10.48 6.13-.01.317-.015.717-.015.717 0 5.406 1.264 10.074 3.348 12.591-9.907-1.072-17.257-6.323-17.257-12.493 0-2.487 1.194-4.872 3.443-6.945zm.116-1.725c.001.045.007.087.007.134 0-.023-.005-.042-.006-.066v-.068zm11.294 6.705c.046.006.09.015.135.019v.004h-.004v-.004c-.043-.004-.087-.013-.13-.019zm-6.87-7.335c.577-1.646 4.482-3.086 9.472-3.548-1.424 1.631-2.52 4.264-3.09 7.462-3.244-.608-5.574-1.655-6.26-2.844a1.295 1.295 0 0 1-.195-.661c0-.14.023-.27.072-.409zm9.166-1.754l.09-.171.004-.008c-.03.06-.063.117-.094.179zm3.795 1.8c1.119 0 2.15 1.695 2.691 4.344a41.64 41.64 0 0 1-2.69.093c-.908 0-1.81-.036-2.69-.093.54-2.65 1.574-4.343 2.69-4.343zm3.832 5.201c-.274-2.068-.788-3.764-1.452-4.943.666 1.175 1.179 2.875 1.452 4.943zm.198 2.356v-.005a27.767 27.767 0 0 1 0 .005zm1.933-.245h-.004v-.004l.12-.015c-.04.004-.078.011-.119.015l.003.004zm7-7.358c.05.137.073.27.073.409 0 .215-.065.44-.19.66-.69 1.19-3.023 2.237-6.264 2.845-.571-3.198-1.665-5.83-3.087-7.462 4.987.462 8.897 1.903 9.468 3.548zm2.854 3.56c-.001.004-.006.008-.008.013a5.853 5.853 0 0 1-.225.194c.084-.068.16-.139.233-.206zm1.57-2.936v.056l-.001.018c0 .024-.007.048-.008.07.002-.046.009-.093.009-.144zM25.998 0C11.663 0 0 7.398 0 16.499 0 25.596 11.663 33 25.998 33 40.336 33 52 25.596 52 16.499 52 7.398 40.336 0 25.998 0z" mask="url(#b)"/>
    </g>
</svg>
