<svg xmlns="http://www.w3.org/2000/svg" xmlns:xlink="http://www.w3.org/1999/xlink" width="41" height="41" viewBox="0 0 41 41">
    <defs>
        <path id="a" d="M.986.969l3.825 10.687L8.617.985A14.872 14.872 0 0 0 4.76.482c-1.304 0-2.571.17-3.774.487z"/>
        <path id="c" d="M.615 18.824c4.842-2.531 8.175-7.6 8.175-13.434 0-1.892-.327-3.697-.96-5.37L.615 18.824z"/>
        <path id="e" d="M.811 4.066l6.328 16.49 2.315-6.026h6.082l2.317 6.026 6.395-16.689A15.234 15.234 0 0 0 20.239.44l-4.44 12.277H9.545L5.088.39A15.302 15.302 0 0 0 .811 4.066z"/>
        <path id="g" d="M.363 20.481c0 11.089 9.074 20.156 20.176 20.156 11.109 0 20.157-9.067 20.157-20.156C40.696 9.36 31.648.304 20.539.304 9.437.304.363 9.36.363 20.481zm2.576-.002c0-9.699 7.918-17.61 17.6-17.61 9.681 0 17.596 7.911 17.596 17.61 0 9.682-7.915 17.58-17.596 17.58-9.682 0-17.6-7.898-17.6-17.58z"/>
        <path id="i" d="M.734 10.606l-.02.312a15.1 15.1 0 0 0 4.071.542 15.49 15.49 0 0 0 3.832-.478l-.047-.376L4.652.559.734 10.606z"/>
        <path id="k" d="M.54 5.588c0 5.687 3.19 10.677 7.904 13.236L1.401.566A14.759 14.759 0 0 0 .54 5.588z"/>
    </defs>
    <g fill="none" fill-rule="evenodd">
        <path fill="#575859" d="M24.617 6.043a14.872 14.872 0 0 0-3.857-.503c-1.304 0-2.57.17-3.773.486l3.824 10.688 3.806-10.67z"/>
        <g transform="translate(16 5.059)">
            <mask id="b" fill="#fff">
                <use xlink:href="#a"/>
            </mask>
            <path fill="#575859" d="M-.376 13.018H9.98V-.88H-.376z" mask="url(#b)"/>
        </g>
        <path fill="#575859" d="M35.79 20.448c0-1.892-.328-3.697-.96-5.37l-7.216 18.806c4.843-2.534 8.176-7.602 8.176-13.436"/>
        <g transform="translate(27 15.059)">
            <mask id="d" fill="#fff">
                <use xlink:href="#c"/>
            </mask>
            <path fill="#575859" d="M-.748 20.187h10.901V-1.342H-.748z" mask="url(#d)"/>
        </g>
        <path fill="#575859" d="M28.24 7.498L23.8 19.775h-6.255L13.088 7.448a15.302 15.302 0 0 0-4.277 3.676l6.327 16.49 2.316-6.025h6.082l2.317 6.025 6.395-16.688a15.254 15.254 0 0 0-4.009-3.428"/>
        <g transform="translate(8 7.059)">
            <mask id="f" fill="#fff">
                <use xlink:href="#e"/>
            </mask>
            <path fill="#575859" d="M-.552 21.919H25.61V-.974H-.552z" mask="url(#f)"/>
        </g>
        <path fill="#575859" d="M20.539 38.117c-9.682 0-17.6-7.898-17.6-17.58 0-9.699 7.918-17.61 17.6-17.61 9.681 0 17.596 7.911 17.596 17.61 0 9.682-7.915 17.58-17.596 17.58m0-37.755C9.437.362.363 9.418.363 20.54c0 11.09 9.074 20.156 20.176 20.156 11.108 0 20.157-9.067 20.157-20.156C40.696 9.42 31.647.362 20.539.362"/>
        <g transform="translate(0 .059)">
            <mask id="h" fill="#fff">
                <use xlink:href="#g"/>
            </mask>
            <path fill="#575859" d="M-1 42h43.059V-1.059H-1z" mask="url(#h)"/>
        </g>
        <path fill="#575859" d="M20.652 24.617l-3.918 10.047-.02.312c1.298.362 2.658.541 4.07.541 1.326 0 2.61-.165 3.833-.477l-.047-.376-3.918-10.047z"/>
        <g transform="translate(16 24.058)">
            <mask id="j" fill="#fff">
                <use xlink:href="#i"/>
            </mask>
            <path fill="#575859" d="M-.649 12.822H9.979V-.804H-.649z" mask="url(#j)"/>
        </g>
        <path fill="#575859" d="M5.54 20.647c0 5.687 3.19 10.677 7.903 13.236L6.4 15.625a14.778 14.778 0 0 0-.86 5.022"/>
        <g transform="translate(5 15.059)">
            <mask id="l" fill="#fff">
                <use xlink:href="#k"/>
            </mask>
            <path fill="#575859" d="M-.822 20.187H9.806V-.797H-.822z" mask="url(#l)"/>
        </g>
    </g>
</svg>
